PathFileType	4	(X/Y/Z)	C:\Users\italobelli\Desktop\GitHub\PTbot_officialCBL\Personal_Results\SHRUG03_noisy1.trc
DataRate	CameraRate	NumFrames	NumMarkers	Units	OrigDataRate	OrigDataStartFrame	OrigNumFrames
110.888889	110.888889	38	9	m	110.888889	438	500
Frame#	Time		gu		centelbow		EpL		centpxt8		centijc7		ts		aa		ai		ij
			X1	Y1	Z1	X2	Y2	Z2	X3	Y3	Z3	X4	Y4	Z4	X5	Y5	Z5	X6	Y6	Z6	X7	Y7	Z7	X8	Y8	Z8	X9	Y9	Z9

438	3.9409	-0.083486	-0.012618	0.16528	-0.13351	-0.25588	0.19731	-0.1143	-0.25123	0.22278	-0.046816	-0.15316	-0.008669	-0.046816	0.031938	-0.008669	-0.13835	0.031214	0.053902	-0.11033	0.025265	0.16968	-0.15988	-0.080135	0.058766	0	0	0
439	3.9499	-0.083486	-0.012617	0.16528	-0.13341	-0.25593	0.1972	-0.1142	-0.25128	0.22267	-0.046816	-0.15316	-0.008669	-0.046816	0.031938	-0.008669	-0.13835	0.031202	0.053905	-0.11032	0.02525	0.16968	-0.15988	-0.080147	0.058767	0	0	0
440	3.9589	-0.083485	-0.012617	0.16527	-0.13331	-0.25598	0.1971	-0.1141	-0.25133	0.22257	-0.046816	-0.15316	-0.008669	-0.046816	0.031938	-0.008669	-0.13835	0.031189	0.053909	-0.11032	0.025236	0.16968	-0.15988	-0.08016	0.058769	0	0	0
441	3.9679	-0.083485	-0.012617	0.16527	-0.13321	-0.25603	0.197	-0.114	-0.25137	0.22247	-0.046816	-0.15316	-0.008669	-0.046816	0.031938	-0.008669	-0.13835	0.031176	0.053912	-0.11032	0.025221	0.16969	-0.15988	-0.080173	0.05877	0	0	0
442	3.977	-0.083484	-0.012617	0.16526	-0.13311	-0.25608	0.1969	-0.1139	-0.25142	0.22237	-0.046816	-0.15316	-0.008669	-0.046816	0.031938	-0.008669	-0.13835	0.031163	0.053916	-0.11032	0.025207	0.16969	-0.15988	-0.080186	0.058772	0	0	0
443	3.986	-0.083483	-0.012617	0.16526	-0.13302	-0.25612	0.1968	-0.11381	-0.25146	0.22227	-0.046816	-0.15316	-0.008669	-0.046816	0.031938	-0.008669	-0.13835	0.031151	0.053919	-0.11032	0.025192	0.16969	-0.15988	-0.080198	0.058773	0	0	0
444	3.995	-0.083482	-0.012618	0.16525	-0.13293	-0.25615	0.1967	-0.11372	-0.25149	0.22217	-0.046816	-0.15316	-0.008669	-0.046816	0.031938	-0.008669	-0.13835	0.031138	0.053923	-0.11032	0.025178	0.1697	-0.15988	-0.080211	0.058775	0	0	0
445	4.004	-0.08348	-0.01262	0.16525	-0.13284	-0.25618	0.19661	-0.11363	-0.25152	0.22208	-0.046816	-0.15316	-0.008669	-0.046816	0.031938	-0.008669	-0.13835	0.031125	0.053927	-0.11032	0.025164	0.1697	-0.15988	-0.080224	0.058777	0	0	0
446	4.013	-0.083478	-0.012622	0.16524	-0.13275	-0.25621	0.19651	-0.11355	-0.25155	0.22198	-0.046816	-0.15316	-0.008669	-0.046816	0.031938	-0.008669	-0.13835	0.031113	0.05393	-0.11032	0.025149	0.16971	-0.15988	-0.080236	0.058778	0	0	0
447	4.022	-0.083476	-0.012624	0.16524	-0.13267	-0.25624	0.19641	-0.11346	-0.25158	0.22188	-0.046816	-0.15316	-0.008669	-0.046816	0.031938	-0.008669	-0.13835	0.0311	0.053934	-0.11032	0.025135	0.16971	-0.15988	-0.080249	0.05878	0	0	0
448	4.0311	-0.083473	-0.012628	0.16523	-0.13258	-0.25626	0.19632	-0.11337	-0.2516	0.22179	-0.046816	-0.15316	-0.008669	-0.046816	0.031938	-0.008669	-0.13835	0.031087	0.053938	-0.11032	0.02512	0.16971	-0.15988	-0.080262	0.058782	0	0	0
449	4.0401	-0.083469	-0.012632	0.16523	-0.1325	-0.25629	0.19622	-0.11329	-0.25163	0.22169	-0.046816	-0.15316	-0.008669	-0.046816	0.031938	-0.008669	-0.13835	0.031074	0.053941	-0.11032	0.025105	0.16972	-0.15988	-0.080275	0.058784	0	0	0
450	4.0491	-0.083465	-0.012637	0.16523	-0.13241	-0.2563	0.19612	-0.1132	-0.25164	0.22159	-0.046816	-0.15316	-0.008669	-0.046816	0.031938	-0.008669	-0.13835	0.031061	0.053945	-0.11032	0.02509	0.16972	-0.15988	-0.080288	0.058785	0	0	0
451	4.0581	-0.08346	-0.012643	0.16522	-0.13232	-0.25632	0.19602	-0.11311	-0.25166	0.22149	-0.046816	-0.15316	-0.008669	-0.046816	0.031938	-0.008669	-0.13835	0.031048	0.053949	-0.11031	0.025075	0.16972	-0.15988	-0.080301	0.058787	0	0	0
452	4.0671	-0.083455	-0.012649	0.16522	-0.13224	-0.25633	0.19593	-0.11303	-0.25167	0.2214	-0.046816	-0.15316	-0.008669	-0.046816	0.031938	-0.008669	-0.13834	0.031034	0.053953	-0.11031	0.02506	0.16973	-0.15987	-0.080314	0.058789	0	0	0
453	4.0762	-0.083449	-0.012657	0.16521	-0.13215	-0.25634	0.19583	-0.11294	-0.25168	0.2213	-0.046816	-0.15316	-0.008669	-0.046816	0.031938	-0.008669	-0.13834	0.031021	0.053956	-0.11031	0.025044	0.16973	-0.15987	-0.080328	0.058791	0	0	0
454	4.0852	-0.083443	-0.012664	0.16521	-0.13206	-0.25635	0.19573	-0.11285	-0.25169	0.2212	-0.046816	-0.15316	-0.008669	-0.046816	0.031938	-0.008669	-0.13834	0.031007	0.05396	-0.11031	0.025029	0.16974	-0.15987	-0.080341	0.058793	0	0	0
455	4.0942	-0.083436	-0.012673	0.1652	-0.13198	-0.25636	0.19563	-0.11277	-0.2517	0.2211	-0.046816	-0.15316	-0.008669	-0.046816	0.031938	-0.008669	-0.13834	0.030993	0.053964	-0.11031	0.025013	0.16974	-0.15987	-0.080355	0.058794	0	0	0
456	4.1032	-0.083429	-0.012682	0.1652	-0.13189	-0.25636	0.19553	-0.11268	-0.2517	0.221	-0.046816	-0.15316	-0.008669	-0.046816	0.031938	-0.008669	-0.13834	0.03098	0.053968	-0.11031	0.024997	0.16974	-0.15987	-0.080368	0.058796	0	0	0
457	4.1122	-0.083421	-0.012691	0.16519	-0.1318	-0.25636	0.19543	-0.11259	-0.2517	0.2209	-0.046816	-0.15316	-0.008669	-0.046816	0.031938	-0.008669	-0.13834	0.030966	0.053971	-0.11031	0.024982	0.16975	-0.15987	-0.080382	0.058798	0	0	0
458	4.1212	-0.083413	-0.012701	0.16519	-0.13172	-0.25636	0.19533	-0.11251	-0.2517	0.2208	-0.046816	-0.15316	-0.008669	-0.046816	0.031938	-0.008669	-0.13833	0.030952	0.053975	-0.11031	0.024965	0.16975	-0.15987	-0.080396	0.0588	0	0	0
459	4.1303	-0.083405	-0.012712	0.16518	-0.13163	-0.25636	0.19523	-0.11242	-0.2517	0.2207	-0.046816	-0.15316	-0.008669	-0.046816	0.031938	-0.008669	-0.13833	0.030937	0.053979	-0.11031	0.024949	0.16976	-0.15987	-0.08041	0.058802	0	0	0
460	4.1393	-0.083396	-0.012724	0.16518	-0.13154	-0.25635	0.19513	-0.11233	-0.25169	0.22059	-0.046816	-0.15316	-0.008669	-0.046816	0.031938	-0.008669	-0.13833	0.030923	0.053983	-0.11031	0.024933	0.16976	-0.15987	-0.080424	0.058804	0	0	0
461	4.1483	-0.083387	-0.012736	0.16518	-0.13146	-0.25634	0.19502	-0.11225	-0.25168	0.22049	-0.046816	-0.15316	-0.008669	-0.046816	0.031938	-0.008669	-0.13833	0.030909	0.053986	-0.1103	0.024917	0.16976	-0.15987	-0.080438	0.058806	0	0	0
462	4.1573	-0.083377	-0.012748	0.16517	-0.13137	-0.25633	0.19492	-0.11216	-0.25167	0.22039	-0.046816	-0.15316	-0.008669	-0.046816	0.031938	-0.008669	-0.13832	0.030894	0.05399	-0.1103	0.0249	0.16977	-0.15987	-0.080452	0.058808	0	0	0
463	4.1663	-0.083367	-0.012761	0.16517	-0.13128	-0.25632	0.19482	-0.11207	-0.25166	0.22029	-0.046816	-0.15316	-0.008669	-0.046816	0.031938	-0.008669	-0.13832	0.03088	0.053994	-0.1103	0.024883	0.16977	-0.15987	-0.080467	0.058809	0	0	0
464	4.1754	-0.083357	-0.012774	0.16516	-0.1312	-0.25631	0.19472	-0.11199	-0.25165	0.22018	-0.046816	-0.15316	-0.008669	-0.046816	0.031938	-0.008669	-0.13832	0.030865	0.053998	-0.1103	0.024866	0.16978	-0.15987	-0.080481	0.058811	0	0	0
465	4.1844	-0.083346	-0.012788	0.16516	-0.13111	-0.25629	0.19461	-0.1119	-0.25163	0.22008	-0.046816	-0.15316	-0.008669	-0.046816	0.031938	-0.008669	-0.13832	0.03085	0.054001	-0.1103	0.024849	0.16978	-0.15987	-0.080496	0.058813	0	0	0
466	4.1934	-0.083335	-0.012803	0.16515	-0.13102	-0.25627	0.19451	-0.11181	-0.25162	0.21998	-0.046816	-0.15316	-0.008669	-0.046816	0.031938	-0.008669	-0.13831	0.030835	0.054005	-0.1103	0.024832	0.16978	-0.15987	-0.08051	0.058815	0	0	0
467	4.2024	-0.083323	-0.012817	0.16515	-0.13094	-0.25625	0.1944	-0.11173	-0.2516	0.21987	-0.046816	-0.15316	-0.008669	-0.046816	0.031938	-0.008669	-0.13831	0.03082	0.054009	-0.1103	0.024815	0.16979	-0.15986	-0.080525	0.058817	0	0	0
468	4.2114	-0.083311	-0.012833	0.16514	-0.13085	-0.25623	0.1943	-0.11164	-0.25157	0.21977	-0.046816	-0.15316	-0.008669	-0.046816	0.031938	-0.008669	-0.13831	0.030805	0.054013	-0.1103	0.024798	0.16979	-0.15986	-0.08054	0.058819	0	0	0
469	4.2204	-0.083299	-0.012848	0.16514	-0.13076	-0.25621	0.19419	-0.11156	-0.25155	0.21966	-0.046816	-0.15316	-0.008669	-0.046816	0.031938	-0.008669	-0.1383	0.030789	0.054017	-0.1103	0.024781	0.1698	-0.15986	-0.080555	0.058821	0	0	0
470	4.2295	-0.083287	-0.012864	0.16514	-0.13068	-0.25618	0.19409	-0.11147	-0.25153	0.21956	-0.046816	-0.15316	-0.008669	-0.046816	0.031938	-0.008669	-0.1383	0.030774	0.054021	-0.1103	0.024763	0.1698	-0.15986	-0.08057	0.058823	0	0	0
471	4.2385	-0.083274	-0.012881	0.16513	-0.13059	-0.25616	0.19398	-0.11138	-0.2515	0.21945	-0.046816	-0.15316	-0.008669	-0.046816	0.031938	-0.008669	-0.1383	0.030758	0.054024	-0.11029	0.024745	0.1698	-0.15986	-0.080585	0.058825	0	0	0
472	4.2475	-0.083261	-0.012898	0.16513	-0.13051	-0.25613	0.19388	-0.1113	-0.25147	0.21935	-0.046816	-0.15316	-0.008669	-0.046816	0.031938	-0.008669	-0.13829	0.030743	0.054028	-0.11029	0.024728	0.16981	-0.15986	-0.0806	0.058827	0	0	0
473	4.2565	-0.083248	-0.012915	0.16512	-0.13042	-0.2561	0.19377	-0.11121	-0.25144	0.21924	-0.046816	-0.15316	-0.008669	-0.046816	0.031938	-0.008669	-0.13829	0.030727	0.054032	-0.11029	0.02471	0.16981	-0.15986	-0.080615	0.058829	0	0	0
474	4.2655	-0.083235	-0.012932	0.16512	-0.13033	-0.25607	0.19366	-0.11113	-0.25141	0.21913	-0.046816	-0.15316	-0.008669	-0.046816	0.031938	-0.008669	-0.13829	0.030711	0.054036	-0.11029	0.024692	0.16982	-0.15986	-0.080631	0.058831	0	0	0
475	4.2745	-0.083221	-0.01295	0.16511	-0.13025	-0.25604	0.19355	-0.11104	-0.25138	0.21903	-0.046816	-0.15316	-0.008669	-0.046816	0.031938	-0.008669	-0.13828	0.030695	0.05404	-0.11029	0.024674	0.16982	-0.15986	-0.080646	0.058834	0	0	0
